<svg id="Layer_1" data-name="Layer 1" xmlns="http://www.w3.org/2000/svg" viewBox="0 0 49.59 49.4"><defs><style>.cls-1,.cls-2{fill:none;stroke:#556e37;stroke-width:1.5px;}.cls-1{stroke-linecap:round;stroke-linejoin:round;}</style></defs><circle class="cls-1" cx="24.79" cy="24.81" r="23.37"/><path class="cls-2" d="M32.75,26.76A6.42,6.42,0,0,1,34,30.67a6,6,0,0,1-2.39,5.09,11,11,0,0,1-6.77,1.83A10.94,10.94,0,0,1,18,35.76a6,6,0,0,1-2.4-5.09,6.39,6.39,0,0,1,1.23-4,6.2,6.2,0,0,1,3.43-2.23,6.24,6.24,0,0,1-3-2.24,6,6,0,0,1-1.08-3.55,5.89,5.89,0,0,1,2.27-4.88A9.86,9.86,0,0,1,24.79,12a9.89,9.89,0,0,1,6.29,1.79,5.89,5.89,0,0,1,2.27,4.88,6.08,6.08,0,0,1-1.08,3.57,6,6,0,0,1-2.93,2.22A6.22,6.22,0,0,1,32.75,26.76Zm-2.31,3.66q0-4.26-5.65-4.26t-5.64,4.26q0,4.21,5.64,4.22T30.44,30.42ZM21,16a3.67,3.67,0,0,0-1.28,3A3.8,3.8,0,0,0,21,22.11a5.75,5.75,0,0,0,3.76,1.06,5.76,5.76,0,0,0,3.77-1.06A3.8,3.8,0,0,0,29.84,19a3.67,3.67,0,0,0-1.28-3,5.82,5.82,0,0,0-3.77-1A5.81,5.81,0,0,0,21,16Z"/></svg>
