<svg id="Layer_1" data-name="Layer 1" xmlns="http://www.w3.org/2000/svg" viewBox="0 0 49.59 49.4"><defs><style>.cls-1{fill:none;stroke:#556e37;stroke-linecap:round;stroke-linejoin:round;stroke-width:1.5px;}.cls-2{font-size:4.08px;fill:#556e37;font-family:Nunito-Bold, Nunito;font-weight:700;letter-spacing:0.2em;}.cls-3{letter-spacing:0.17em;}.cls-4{letter-spacing:0.16em;}.cls-5{letter-spacing:0.2em;}</style></defs><path class="cls-1" d="M43.61,38.68a23.57,23.57,0,0,1-3.56,3.84"/><path class="cls-1" d="M40.05,42.52a23.37,23.37,0,1,1,3.56-3.84"/><path class="cls-1" d="M39.25,25.24h2a.66.66,0,0,0,.67-.66V13a.66.66,0,0,0-.67-.66H22.39a.65.65,0,0,0-.66.66V24.58a.65.65,0,0,0,.66.66H34.75a.7.7,0,0,1,.37.11l3.41,2.26a.17.17,0,0,0,.26-.17L38.59,26A.67.67,0,0,1,39.25,25.24Z"/><text class="cls-2" transform="translate(9.35 29.96)">AH<tspan class="cls-3" x="7.78" y="0">O</tspan><tspan x="11.63" y="0">J</tspan></text><path class="cls-1" d="M26.22,25.24v9a.67.67,0,0,1-.67.67H13.19a.62.62,0,0,0-.37.11L9.41,37.3a.17.17,0,0,1-.26-.16l.2-1.45a.67.67,0,0,0-.66-.75h-2A.67.67,0,0,1,6,34.27V22.64A.67.67,0,0,1,6.67,22H21.73"/><text class="cls-2" transform="translate(23.97 20.33)">HEL<tspan class="cls-4" x="10.23" y="0">L</tspan><tspan class="cls-5" x="13.15" y="0">O</tspan></text></svg>
