<svg id="Layer_1" data-name="Layer 1" xmlns="http://www.w3.org/2000/svg" viewBox="0 0 49.59 49.4"><defs><style>.cls-1{fill:none;stroke:#556e37;stroke-linecap:round;stroke-linejoin:round;stroke-width:1.5px;}</style></defs><circle class="cls-1" cx="24.79" cy="25.01" r="23.37"/><path class="cls-1" d="M37.27,11.28v2.77s.4,2.87-3.27,3.27H18.85v4.06h12a3.59,3.59,0,0,1,3.09,1.72c.55.92.86,1.79-.61,3a3.14,3.14,0,0,1-2,.7H18.85v5.34H33.52a4.09,4.09,0,0,1,3.66,1.55c.49.76,1.25,2.35-.46,3.55a5.16,5.16,0,0,1-2.94.85h-22V15.74s-.3-3.87,3-4.46Z"/></svg>
