<svg id="Layer_1" data-name="Layer 1" xmlns="http://www.w3.org/2000/svg" viewBox="0 0 49.59 49.4"><defs><style>.cls-1{fill:none;stroke:#556e37;stroke-linecap:round;stroke-linejoin:round;stroke-width:1.5px;}</style></defs><circle class="cls-1" cx="24.79" cy="25.01" r="23.37"/><path class="cls-1" d="M20.48,27.8v11a.71.71,0,0,0,.71.71h5a.71.71,0,0,0,.71-.71v-11a.71.71,0,0,1,.71-.72h3.45a.71.71,0,0,0,.71-.71V21.78a.71.71,0,0,0-.71-.71H27.85a.71.71,0,0,1-.72-.71V17.22a.71.71,0,0,1,.72-.71h3.21a.71.71,0,0,0,.71-.72V11.26a.71.71,0,0,0-.71-.71H26.59s-7,.07-6.19,10.1a.72.72,0,0,1-.72.79l-2.5-.05a.72.72,0,0,0-.72.72v4.22a.72.72,0,0,0,.7.71l2.62.05A.71.71,0,0,1,20.48,27.8Z"/></svg>
