<svg xmlns="http://www.w3.org/2000/svg" width="317.939" height="283.063" viewBox="0 0 317.939 283.063">
  <g id="logosvg-02" transform="translate(-0.092 1.088)">
    <path id="Path_1" data-name="Path 1" d="M202.059,37.86A116.632,116.632,0,0,1,27.3,116.09L39.471,94.182" transform="translate(72.101 100.497)" fill="none" stroke="#fff" stroke-linecap="round" stroke-linejoin="round" stroke-width="2"/>
    <line id="Line_1" data-name="Line 1" y1="3.735" x2="29.462" transform="translate(82.11 194.68)" fill="none" stroke="#fff" stroke-linecap="round" stroke-linejoin="round" stroke-width="2"/>
    <line id="Line_2" data-name="Line 2" y1="2.518" x2="19.683" transform="translate(111.572 192.162)" fill="none" stroke="#fff" stroke-linecap="round" stroke-linejoin="round" stroke-width="2"/>
    <path id="Path_2" data-name="Path 2" d="M136.067,38.09,120.035,80.143,34.88,90.929" transform="translate(96.333 101.233)" fill="none" stroke="#fff" stroke-linecap="round" stroke-linejoin="round" stroke-width="2"/>
    <path id="Path_3" data-name="Path 3" d="M174.988,13.735a116.632,116.632,0,0,0-138.2,177.277,50.069,50.069,0,0,1,22.034-24.678,64.59,64.59,0,0,1,12.8-5.708A51.621,51.621,0,0,1,86.1,158.15a113.95,113.95,0,0,1,14.1,0c2.98.336,26.273,4.449,46.166,8.016,15.109,2.686,28.119,5.078,28.119,5.078s2.182-5.5,5.792-12.884c6.715-14.521,19.138-35.506,31.729-36.765l-8.394,22.579" transform="translate(29.042 -4.893)" fill="none" stroke="#fff" stroke-linecap="round" stroke-linejoin="round" stroke-width="2"/>
    <path id="Path_4" data-name="Path 4" d="M105.855,109.287a118.142,118.142,0,0,0-1.679-25.181A116.548,116.548,0,0,0,58.01,10.24" transform="translate(170.277 12.199)" fill="none" stroke="#fff" stroke-linecap="round" stroke-linejoin="round" stroke-width="2"/>
    <path id="Path_5" data-name="Path 5" d="M55.17,101.628l16.074-2.015,41.3-41.591L128.28,42.116a41.591,41.591,0,0,0-12.591,1.637A56.994,56.994,0,0,0,96.425,53.2l11.751-21.782s-17.585-2.392-37.1,28.119h0" transform="translate(161.198 79.748)" fill="none" stroke="#fff" stroke-linecap="round" stroke-linejoin="round" stroke-width="2"/>
    <line id="Line_3" data-name="Line 3" x1="25.517" y2="46.418" transform="translate(232.275 132.943)" fill="none" stroke="#fff" stroke-linecap="round" stroke-linejoin="round" stroke-width="2"/>
    <path id="Path_6" data-name="Path 6" d="M40.01,37.71l7.89,8.184L62.463,61.129" transform="translate(112.733 100.018)" fill="none" stroke="#fff" stroke-linecap="round" stroke-linejoin="round" stroke-width="2"/>
    <path id="Path_7" data-name="Path 7" d="M24.55,74.626a96.99,96.99,0,0,1,27.658-23.5,60.982,60.982,0,0,1,23.251-7.764l12.591-1.637,64.3-8.142s9.359,15.487-54.56,24.762l47.677,8.142" transform="translate(63.309 86.815)" fill="none" stroke="#fff" stroke-linecap="round" stroke-linejoin="round" stroke-width="2"/>
    <path id="Path_8" data-name="Path 8" d="M132.741,26,125.565,57.35l18.97,7.177-29.84,20.817-.755.5L94.088,114.553,88.506,96.926,47,105.194l5.2-13.01L34.66,81.9l15.654-8.688-6.505-7.722,15.654-5.918L40.494,46.731l11.667-7.6L45.32,16.556l23.964,6.211L78.14,10.6,90.521,30.531l4.91-16.7,8.436,8.52,5.456-9.527L113.6,5.35l7.89,15.948,12.759-1.931L132.741,26" transform="translate(95.63 -3.434)" fill="none" stroke="#fff" stroke-linecap="round" stroke-linejoin="round" stroke-width="2"/>
    <path id="Path_9" data-name="Path 9" d="M101.687,70.918,78.73,48.674,64.166,34.489,45.91,16.82" transform="translate(131.595 33.235)" fill="none" stroke="#fff" stroke-linecap="round" stroke-linejoin="round" stroke-width="2"/>
    <path id="Path_10" data-name="Path 10" d="M42.45,55.651l32.61-9.107L75.228,46,85.3,13.22" transform="translate(120.534 21.726)" fill="none" stroke="#fff" stroke-linecap="round" stroke-linejoin="round" stroke-width="2"/>
    <text id="G" transform="translate(5.851 149.713) rotate(73.69)" fill="#fff" font-size="16" font-family="Nunito-Regular, Nunito"><tspan x="0" y="0">G</tspan></text>
    <text id="Y" transform="translate(11.953 175.176) rotate(65.225)" fill="#fff" font-size="18" font-family="Nunito-Regular, Nunito"><tspan x="0" y="0">Y</tspan></text>
    <text id="M" transform="matrix(0.571, 0.821, -0.821, 0.571, 21.504, 196.817)" fill="#fff" font-size="19" font-family="Nunito-Regular, Nunito"><tspan x="0" y="0">M</tspan></text>
    <text id="N" transform="translate(41.219 218.699) rotate(45)" fill="#fff" font-size="16" font-family="Nunito-Regular, Nunito"><tspan x="0" y="0">N</tspan></text>
    <text id="Á" transform="matrix(0.814, 0.581, -0.581, 0.814, 60.539, 237.106)" fill="#fff" font-size="16" font-family="Nunito-Regular, Nunito"><tspan x="0" y="0">Á</tspan></text>
    <text id="Z" transform="translate(81.235 253.447) rotate(26.8)" fill="#fff" font-size="18" font-family="Nunito-Regular, Nunito"><tspan x="0" y="0">Z</tspan></text>
    <text id="I" transform="translate(103.869 258.528) rotate(20.04)" fill="#fff" font-size="13" font-family="Nunito-Regular, Nunito"><tspan x="0" y="0">I</tspan></text>
    <text id="U" transform="translate(116.267 266.091) rotate(12.64)" fill="#fff" font-size="16" font-family="Nunito-Regular, Nunito"><tspan x="0" y="0">U</tspan></text>
    <text id="M-2" data-name="M" transform="translate(141.973 274.289) rotate(2.48)" fill="#fff" font-size="19" font-family="Nunito-Regular, Nunito"><tspan x="0" y="0">M</tspan></text>
    <text id="J" transform="matrix(0.982, -0.19, 0.19, 0.982, 185.536, 269.814)" fill="#fff" font-size="16" font-family="Nunito-Regular, Nunito"><tspan x="0" y="0">J</tspan></text>
    <text id="A" transform="matrix(0.948, -0.319, 0.319, 0.948, 201.308, 266.601)" fill="#fff" font-size="16" font-family="Nunito-Regular, Nunito"><tspan x="0" y="0">A</tspan></text>
    <text id="V" transform="matrix(0.888, -0.46, 0.46, 0.888, 225.532, 259.985)" fill="#fff" font-size="18" font-family="Nunito-Regular, Nunito"><tspan x="0" y="0">V</tspan></text>
    <text id="O" transform="translate(247.779 247.856) rotate(-36.83)" fill="#fff" font-size="18" font-family="Nunito-Regular, Nunito"><tspan x="0" y="0">O</tspan></text>
    <text id="R" transform="translate(269.444 230.666) rotate(-46.614)" fill="#fff" font-size="18" font-family="Nunito-Regular, Nunito"><tspan x="0" y="0">R</tspan></text>
    <text id="O-2" data-name="O" transform="translate(286.547 211.774) rotate(-55.993)" fill="#fff" font-size="18" font-family="Nunito-Regular, Nunito"><tspan x="0" y="0">O</tspan></text>
    <text id="V-2" data-name="V" transform="translate(301.253 188.781) rotate(-65.28)" fill="#fff" font-size="18" font-family="Nunito-Regular, Nunito"><tspan x="0" y="0">V</tspan></text>
    <text id="Á-2" data-name="Á" transform="translate(308.976 166.189) rotate(-74.12)" fill="#fff" font-size="16" font-family="Nunito-Regular, Nunito"><tspan x="0" y="0">Á</tspan></text>
  </g>
</svg>
