<svg id="Layer_1" data-name="Layer 1" xmlns="http://www.w3.org/2000/svg" viewBox="0 0 49.59 49.4"><defs><style>.cls-1{fill:none;stroke:#556e37;stroke-linecap:round;stroke-linejoin:round;stroke-width:1.5px;}</style></defs><circle class="cls-1" cx="24.79" cy="24.6" r="23.37"/><rect class="cls-1" x="12.54" y="9.97" width="24.51" height="29.46" rx="2.87"/><line class="cls-1" x1="16.62" y1="13.87" x2="22.82" y2="13.87"/><line class="cls-1" x1="16.62" y1="16.16" x2="22.82" y2="16.16"/><line class="cls-1" x1="16.62" y1="18.46" x2="22.82" y2="18.46"/><line class="cls-1" x1="26.76" y1="13.87" x2="32.96" y2="13.87"/><line class="cls-1" x1="26.76" y1="16.16" x2="32.96" y2="16.16"/><line class="cls-1" x1="26.76" y1="18.46" x2="32.96" y2="18.46"/><line class="cls-1" x1="16.62" y1="22.49" x2="22.82" y2="22.49"/><line class="cls-1" x1="16.62" y1="24.78" x2="22.82" y2="24.78"/><line class="cls-1" x1="16.62" y1="27.07" x2="22.82" y2="27.07"/><line class="cls-1" x1="26.76" y1="22.49" x2="32.96" y2="22.49"/><line class="cls-1" x1="26.76" y1="24.78" x2="32.96" y2="24.78"/><line class="cls-1" x1="26.76" y1="27.07" x2="32.96" y2="27.07"/><line class="cls-1" x1="16.62" y1="30.94" x2="22.82" y2="30.94"/><line class="cls-1" x1="16.62" y1="33.23" x2="22.82" y2="33.23"/><line class="cls-1" x1="16.62" y1="35.52" x2="22.82" y2="35.52"/><line class="cls-1" x1="26.76" y1="30.94" x2="32.96" y2="30.94"/><line class="cls-1" x1="26.76" y1="33.23" x2="32.96" y2="33.23"/><line class="cls-1" x1="26.76" y1="35.52" x2="32.96" y2="35.52"/></svg>
