<svg id="Layer_1" data-name="Layer 1" xmlns="http://www.w3.org/2000/svg" viewBox="0 0 49.59 49.4"><defs><style>.cls-1{fill:none;stroke:#000;stroke-linecap:round;stroke-linejoin:round;stroke-width:0.57px;}</style></defs><circle class="cls-1" cx="24.79" cy="24.7" r="23.37"/><path class="cls-1" d="M19.65,22.65c.93,1.57,3.77,5.88,8.13,8.11a1.07,1.07,0,0,0,1.2-.19L31.7,28c.7-.67,1.37-.73,1.88-.39A26.65,26.65,0,0,1,39,32.3a2.54,2.54,0,0,1,0,3.14,7.27,7.27,0,0,1-1.14,1.17,8.08,8.08,0,0,1-7.83,1.27C24.75,36,14,30.83,11.8,19a7.78,7.78,0,0,1,2.21-7l.27-.24a2.56,2.56,0,0,1,3.08-.22,17.73,17.73,0,0,1,5.29,4.94A1.4,1.4,0,0,1,22.56,18l-2.82,3.57A1,1,0,0,0,19.65,22.65Z"/></svg>
