<?xml version="1.0" standalone="no"?>
<!DOCTYPE svg PUBLIC "-//W3C//DTD SVG 20010904//EN"
 "http://www.w3.org/TR/2001/REC-SVG-20010904/DTD/svg10.dtd">
<svg version="1.0" xmlns="http://www.w3.org/2000/svg"
 width="1060.000000pt" height="1060.000000pt" viewBox="0 0 1060.000000 1060.000000"
 preserveAspectRatio="xMidYMid meet">
<metadata>
Created by potrace 1.11, written by Peter Selinger 2001-2013
</metadata>
<g transform="translate(0.000000,1060.000000) scale(0.100000,-0.100000)"
fill="#000000" stroke="none">
<path d="M5068 9985 c-2 -1 -79 -6 -173 -9 -223 -10 -275 -14 -455 -41 -148
-22 -170 -26 -245 -40 -38 -8 -81 -16 -95 -19 -14 -3 -34 -7 -45 -10 -11 -2
-50 -12 -87 -20 -306 -73 -674 -208 -978 -361 -457 -229 -843 -508 -1210 -875
-281 -280 -516 -580 -720 -920 -66 -109 -219 -405 -259 -500 -13 -30 -29 -68
-36 -85 -114 -266 -257 -748 -281 -943 -3 -25 -7 -48 -9 -52 -4 -7 -42 -278
-50 -355 -37 -392 -22 -814 42 -1205 8 -52 17 -104 18 -115 38 -240 186 -728
292 -965 14 -30 39 -86 56 -125 96 -214 217 -426 380 -668 105 -155 143 -197
181 -197 29 0 73 34 82 63 14 47 98 206 152 286 109 165 288 357 427 461 33
25 68 52 77 60 34 31 220 142 325 194 282 140 546 213 844 233 222 14 574 9
689 -11 58 -9 119 -20 135 -22 17 -2 53 -9 80 -14 28 -5 66 -12 85 -15 19 -3
100 -17 180 -31 80 -14 219 -38 310 -54 91 -16 217 -38 280 -50 63 -11 129
-23 145 -26 17 -2 39 -6 50 -8 11 -2 47 -8 80 -14 33 -6 76 -14 95 -17 19 -3
46 -8 60 -10 71 -15 188 -36 225 -42 24 -4 186 -33 315 -56 89 -17 150 -27
185 -32 22 -4 48 -8 57 -11 9 -3 66 -14 127 -24 147 -26 328 -59 371 -67 79
-15 114 4 139 74 8 21 22 56 31 78 367 827 695 1345 1028 1622 66 55 178 126
190 121 4 -2 -42 -133 -103 -293 -62 -159 -115 -299 -119 -310 -4 -11 -18 -47
-31 -80 -14 -33 -78 -204 -145 -380 -66 -176 -125 -329 -130 -340 -9 -21 -120
-311 -201 -530 -27 -71 -53 -139 -58 -150 -5 -11 -29 -72 -52 -135 -23 -63
-43 -116 -44 -117 0 -1 -57 -9 -125 -18 -69 -9 -136 -18 -150 -20 -14 -2 -52
-6 -85 -10 -33 -3 -69 -8 -80 -10 -19 -4 -55 -9 -160 -20 -27 -4 -61 -8 -75
-10 -14 -2 -83 -11 -155 -20 -71 -9 -141 -18 -155 -20 -14 -2 -52 -7 -85 -10
-33 -3 -71 -8 -85 -10 -14 -2 -45 -7 -70 -10 -25 -3 -61 -7 -80 -10 -19 -3
-53 -7 -75 -10 -22 -2 -130 -16 -240 -30 -110 -14 -220 -28 -245 -31 -25 -3
-76 -9 -115 -14 -38 -5 -92 -12 -120 -16 -27 -3 -61 -7 -75 -9 -14 -2 -52 -7
-85 -11 -33 -3 -67 -8 -76 -9 -9 -2 -40 -6 -70 -10 -69 -8 -207 -25 -239 -30
-14 -2 -46 -6 -73 -9 -26 -3 -68 -9 -95 -12 -26 -3 -58 -7 -72 -9 -14 -2 -52
-7 -85 -11 -33 -3 -69 -8 -80 -10 -11 -2 -45 -6 -75 -10 -30 -3 -104 -12 -165
-20 -60 -8 -128 -17 -150 -19 -22 -3 -56 -7 -75 -10 -39 -5 -75 -10 -200 -25
-124 -15 -173 -22 -192 -25 -9 -2 -48 -7 -85 -10 -37 -4 -79 -8 -93 -10 -69
-11 -205 -29 -305 -40 -27 -3 -59 -8 -70 -10 -11 -2 -47 -7 -80 -10 -33 -4
-71 -8 -85 -11 -14 -2 -50 -6 -80 -10 -30 -3 -62 -7 -70 -9 -8 -2 -44 -7 -80
-10 -36 -4 -72 -8 -80 -10 -8 -2 -44 -6 -80 -10 -36 -4 -73 -9 -82 -10 -9 -2
-48 -7 -85 -10 -37 -4 -81 -14 -96 -22 -51 -26 -59 -91 -16 -134 20 -20 29
-21 105 -15 47 4 90 9 97 11 7 2 32 6 57 9 38 4 107 12 330 41 268 35 446 55
456 53 12 -3 -6 -38 -261 -493 -142 -253 -150 -279 -102 -321 30 -25 187 -115
305 -174 106 -53 272 -130 280 -130 4 0 20 -7 36 -15 56 -29 438 -166 504
-180 24 -5 24 -5 132 -34 123 -33 412 -91 530 -105 25 -3 63 -8 85 -11 272
-35 742 -39 1010 -10 22 3 58 7 80 9 72 8 139 17 195 26 30 5 73 12 95 15 22
4 56 10 75 15 19 5 52 11 74 14 21 4 42 8 46 11 3 2 20 7 36 9 58 11 74 15
185 46 1176 326 2146 1061 2781 2107 72 120 210 385 262 503 15 36 36 83 46
105 94 212 216 613 266 870 l18 90 290 293 c160 161 294 303 297 316 9 34 -16
84 -48 97 -27 11 -229 6 -298 -6 -105 -19 -140 -25 -154 -25 -14 0 -16 24 -16
188 -1 173 -10 389 -19 437 -2 11 -7 51 -11 89 -4 38 -8 79 -10 90 -4 21 -9
59 -21 134 -3 20 -7 44 -9 52 -2 8 -7 31 -10 50 -37 234 -164 660 -270 905 -7
17 -25 59 -40 95 -87 204 -265 527 -404 730 -281 413 -655 811 -1026 1091 -37
28 -54 47 -51 58 17 58 46 193 46 215 0 37 -41 76 -80 76 -16 0 -74 -7 -128
-15 -53 -8 -115 -17 -137 -20 -22 -3 -49 -7 -60 -10 -11 -2 -42 -7 -70 -11
-27 -3 -53 -8 -56 -10 -5 -3 -66 116 -243 475 -63 128 -80 146 -136 142 -35
-2 -53 -23 -124 -147 -37 -65 -68 -108 -77 -107 -8 0 -84 27 -169 58 -141 52
-417 136 -487 149 -15 2 -68 14 -118 25 -49 11 -106 23 -125 26 -19 3 -42 8
-50 10 -8 2 -37 6 -65 10 -27 3 -75 10 -105 15 -30 5 -84 12 -120 15 -36 3
-78 8 -95 10 -16 2 -109 7 -205 10 -96 4 -187 8 -202 10 -15 1 -29 1 -30 0z
m287 -180 c204 -11 251 -16 485 -56 145 -24 284 -53 360 -74 72 -20 138 -37
150 -40 69 -15 410 -139 410 -149 0 -2 -19 -37 -42 -78 -23 -40 -47 -83 -53
-96 -12 -21 -18 -17 -153 118 -118 118 -145 140 -170 140 -44 0 -61 -9 -77
-39 -11 -22 -145 -462 -145 -477 0 -26 -105 130 -261 386 -71 118 -135 218
-146 232 -21 24 -67 32 -97 16 -13 -7 -97 -113 -186 -236 -115 -159 -167 -222
-177 -218 -8 4 -27 9 -41 12 -15 4 -85 22 -157 41 -71 19 -137 36 -145 38 -8
2 -62 15 -120 30 -58 15 -112 28 -120 30 -15 3 -216 57 -275 73 -67 19 -128
-27 -118 -88 3 -23 191 -650 233 -780 9 -30 16 -58 13 -62 -3 -7 -126 -89
-339 -226 -77 -50 -106 -82 -100 -113 7 -44 26 -64 119 -126 312 -209 528
-356 525 -358 -2 -2 -95 -38 -208 -80 -271 -100 -285 -107 -298 -145 -14 -39
-5 -64 45 -122 21 -24 61 -71 88 -103 28 -32 53 -63 57 -70 6 -9 -36 -38 -140
-96 -347 -194 -392 -221 -406 -240 -16 -23 -13 -73 4 -95 7 -7 71 -48 143 -90
73 -43 176 -104 229 -136 54 -32 102 -58 108 -58 5 0 10 -4 10 -10 0 -5 4 -10
9 -10 20 0 151 -84 151 -96 0 -8 -4 -22 -10 -32 -22 -39 -170 -424 -170 -443
0 -11 13 -33 29 -49 22 -23 36 -28 62 -25 19 1 192 35 384 74 193 38 361 72
375 75 14 2 160 31 325 65 165 33 312 63 328 66 57 11 83 16 120 25 47 10 32
42 142 -310 47 -151 92 -289 100 -307 20 -45 60 -64 102 -49 28 9 68 62 251
326 120 173 238 344 263 380 45 65 142 205 230 332 l46 68 46 -43 c25 -23 162
-155 304 -293 464 -452 508 -494 526 -500 31 -10 81 5 95 27 37 59 23 86 -101
204 -52 50 -212 205 -356 345 -144 140 -289 280 -322 311 -55 52 -58 57 -41
71 9 9 204 145 432 304 228 158 453 314 500 347 47 32 99 69 117 80 46 31 66
69 56 108 -12 46 0 41 -463 214 -113 42 -219 83 -237 90 l-32 13 14 54 c8 29
16 64 19 78 2 14 14 66 26 115 22 91 27 114 34 150 2 11 14 61 25 110 12 50
28 119 36 155 14 60 18 76 31 138 8 39 45 196 50 215 4 14 24 2 104 -64 211
-172 389 -347 586 -574 33 -38 69 -82 80 -96 10 -15 47 -63 81 -107 219 -282
444 -682 586 -1042 131 -332 207 -615 271 -1015 3 -16 8 -52 11 -80 3 -27 8
-63 10 -80 14 -108 20 -241 20 -454 l0 -243 -90 -32 c-49 -18 -137 -56 -195
-83 -58 -28 -106 -50 -108 -48 -3 3 72 147 88 170 4 6 31 55 60 110 30 55 75
139 100 186 58 108 63 125 44 166 -16 32 -55 49 -106 47 -168 -9 -286 -40
-456 -120 -183 -86 -369 -222 -558 -411 l-113 -112 36 97 c19 53 47 129 61
167 29 79 26 116 -12 140 -28 19 -46 20 -101 11 -205 -34 -448 -206 -658 -466
-34 -41 -64 -77 -67 -80 -4 -3 -43 -57 -87 -120 -126 -180 -268 -416 -388
-645 -31 -60 -58 -111 -59 -112 -1 -2 -51 6 -112 16 -60 11 -125 22 -144 25
-19 4 -71 13 -115 21 -44 7 -93 16 -110 18 -16 3 -46 8 -65 11 -19 3 -48 8
-65 11 -16 3 -57 10 -90 15 -33 5 -71 12 -85 15 -27 5 -364 62 -420 72 -19 3
-42 7 -50 8 -8 2 -24 4 -34 4 -40 2 -5 11 165 46 687 142 1162 327 1387 542
130 125 183 268 146 393 -24 82 -51 93 -189 77 -33 -4 -71 -9 -85 -12 -14 -2
-47 -7 -75 -10 -57 -6 -114 -13 -165 -20 -19 -3 -53 -7 -75 -9 -39 -5 -177
-23 -245 -32 -19 -2 -51 -7 -70 -9 -19 -3 -57 -7 -85 -11 -27 -3 -61 -7 -75
-9 -14 -2 -52 -7 -85 -11 -33 -3 -67 -8 -75 -9 -9 -2 -43 -6 -75 -10 -33 -4
-71 -8 -85 -11 -14 -2 -101 -13 -194 -24 -92 -11 -182 -22 -200 -25 -28 -4
-144 -19 -236 -30 -19 -2 -71 -9 -115 -14 -44 -6 -102 -13 -130 -16 -27 -3
-61 -8 -75 -10 -14 -2 -43 -7 -65 -9 -86 -10 -151 -18 -165 -21 -8 -2 -42 -6
-75 -10 -33 -3 -76 -9 -95 -11 -19 -3 -51 -7 -70 -9 -19 -2 -52 -6 -74 -9 -99
-14 -123 -17 -156 -21 -245 -30 -317 -43 -490 -91 -326 -91 -613 -241 -975
-509 -215 -159 -470 -393 -615 -565 -82 -96 -87 -101 -195 -172 -298 -198
-512 -432 -713 -778 -6 -10 -26 13 -77 90 -202 310 -371 658 -493 1015 -35
103 -96 311 -107 364 -2 9 -11 48 -20 86 -17 74 -19 80 -29 135 -3 19 -8 46
-11 60 -8 40 -13 72 -20 120 -3 25 -8 56 -10 70 -2 14 -7 52 -11 85 -3 33 -8
74 -10 90 -25 198 -24 703 1 895 3 19 7 60 10 90 3 30 10 80 15 110 5 30 12
71 14 90 9 70 66 328 97 435 17 61 32 115 33 120 3 15 56 177 66 200 4 11 31
80 60 153 178 460 461 924 799 1312 87 100 339 352 430 430 35 30 69 60 75 65
25 23 107 86 191 148 50 37 95 70 100 75 29 24 253 167 340 217 93 54 408 215
419 215 3 0 29 11 58 24 348 159 871 297 1293 341 33 4 71 8 85 11 14 2 97 7
185 10 88 4 161 7 162 8 4 4 197 -2 328 -9z m1966 -686 c22 -12 56 -9 219 16
19 3 51 7 70 10 19 3 59 9 88 14 46 7 52 6 52 -10 0 -16 -36 -181 -60 -274 -6
-22 -12 -49 -15 -60 -2 -11 -16 -72 -30 -135 -14 -63 -32 -142 -40 -175 -25
-115 -106 -471 -136 -599 -32 -138 -32 -176 4 -199 12 -8 150 -62 307 -121
157 -60 290 -111 297 -114 10 -6 -320 -241 -847 -604 l-126 -86 -140 134
c-239 232 -344 336 -344 344 0 4 32 111 71 236 39 126 86 281 105 344 19 63
44 142 54 175 47 145 114 366 134 438 19 71 20 80 6 105 -22 37 -55 52 -94 41
-48 -14 -46 -8 -127 -274 -5 -16 -17 -57 -28 -90 -10 -33 -71 -233 -136 -445
-65 -212 -121 -388 -124 -392 -6 -6 -56 40 -426 401 -204 198 -220 211 -256
211 -43 0 -79 -39 -79 -85 0 -32 9 -45 74 -108 40 -40 187 -182 326 -317 l252
-245 -48 -13 c-81 -22 -435 -121 -489 -136 -27 -8 -174 -49 -325 -91 -151 -42
-289 -81 -306 -86 -40 -12 -65 -59 -54 -100 12 -42 18 -48 53 -57 34 -9 28
-10 382 89 99 28 186 53 195 54 8 2 175 49 370 103 195 55 360 97 366 94 19
-11 454 -435 454 -443 0 -4 -124 -186 -276 -405 -152 -220 -299 -432 -327
-472 -27 -40 -53 -70 -58 -65 -4 4 -30 80 -57 168 -109 349 -116 367 -144 388
l-27 21 -538 -108 c-296 -59 -549 -110 -563 -112 -14 -3 -90 -18 -170 -34 -80
-16 -156 -31 -170 -34 -14 -2 -38 -7 -54 -11 -17 -5 -27 -4 -24 1 4 5 32 74
63 154 31 80 63 159 71 177 15 34 18 91 6 110 -4 7 -93 62 -197 124 -327 191
-395 232 -392 235 5 4 355 199 411 228 151 80 150 118 -7 291 -10 11 -32 36
-47 55 l-28 36 254 94 c261 97 304 120 304 166 0 47 -25 72 -188 181 -92 62
-240 162 -330 222 l-163 110 38 24 c188 119 334 219 342 236 18 32 14 52 -55
279 -165 541 -162 533 -145 528 23 -7 453 -117 471 -121 8 -2 42 -11 75 -20
227 -62 267 -69 293 -54 20 11 222 273 296 383 11 18 30 -9 195 -275 274 -442
270 -437 333 -418 35 10 52 30 66 79 41 141 145 486 148 489 2 2 60 -53 129
-123 118 -118 129 -126 165 -126 32 0 43 6 63 33 20 26 207 346 291 499 l21
37 127 -254 c83 -165 135 -258 149 -266z m1959 -3704 c0 -4 -37 -73 -70 -130
-9 -16 -39 -70 -65 -120 -110 -206 -222 -412 -480 -880 -103 -187 -200 -362
-215 -390 -15 -27 -51 -93 -80 -145 -29 -52 -65 -117 -80 -145 -15 -27 -39
-70 -52 -95 -65 -115 -293 -529 -310 -562 -11 -21 -25 -38 -32 -38 -6 0 -56
-7 -111 -14 -55 -8 -127 -18 -160 -21 -33 -4 -81 -11 -107 -15 -29 -4 -48 -3
-48 3 0 5 54 152 121 326 67 174 141 370 166 436 24 66 48 129 53 140 6 11 58
146 116 300 123 325 116 310 207 440 262 377 563 665 842 808 125 64 305 124
305 102z m-2036 -382 c-36 -156 -308 -334 -719 -472 -112 -37 -339 -103 -395
-115 -14 -3 -113 -25 -221 -49 -107 -25 -211 -47 -230 -50 -19 -3 -104 -17
-189 -32 -85 -14 -167 -28 -182 -31 -66 -10 -85 -13 -124 -19 l-41 -5 -133
139 c-158 167 -187 182 -247 128 -41 -37 -31 -80 35 -149 106 -112 163 -172
356 -372 267 -278 269 -280 291 -305 l20 -23 -30 6 c-39 7 -187 34 -343 61
-12 2 -30 6 -40 9 -9 2 -39 7 -66 11 -27 3 -52 8 -56 10 -3 2 -26 6 -50 10
-79 11 -104 15 -135 22 -16 4 -34 7 -40 8 -13 1 -103 16 -130 21 -11 2 -33 6
-50 9 -16 3 -52 10 -80 15 -27 5 -66 12 -85 14 -19 3 -45 8 -56 10 -12 2 -39
7 -60 10 -22 3 -50 8 -64 11 -46 9 -85 15 -130 21 -25 3 -61 9 -80 13 -96 20
-653 18 -795 -4 -16 -2 -66 -9 -110 -15 -97 -14 -238 -49 -359 -89 l-89 -29
34 31 c49 46 129 117 169 152 152 132 513 376 680 459 41 21 83 42 93 48 118
61 446 159 617 183 25 3 56 8 70 10 53 8 127 17 160 20 19 2 55 6 80 9 56 8
102 14 160 21 25 3 61 7 80 10 19 2 91 12 160 20 69 9 136 18 150 20 14 2 50
7 80 10 30 3 66 8 80 10 14 2 50 6 80 10 30 4 66 8 80 10 14 2 48 6 75 10 28
3 61 8 75 10 14 2 69 9 124 15 54 7 106 13 115 15 9 1 45 6 81 10 36 4 72 8
80 10 8 1 42 6 75 9 33 4 71 9 85 11 14 2 48 6 75 10 76 9 123 15 200 25 39 5
90 12 115 15 25 3 61 7 80 10 19 3 53 7 75 9 22 3 60 8 85 11 25 3 61 8 80 10
19 2 71 9 115 15 44 5 105 13 135 16 30 3 73 9 95 13 22 4 52 8 68 9 25 2 27
0 21 -25z m2725 -59 c-126 -137 -1636 -1640 -1621 -1614 26 45 387 701 419
760 13 25 79 144 146 265 l122 220 100 67 c229 154 460 251 735 308 124 26
129 26 99 -6z m-524 -880 c-277 -986 -873 -1840 -1708 -2447 -347 -253 -731
-453 -1154 -603 -104 -37 -334 -105 -398 -118 -11 -3 -50 -12 -87 -20 -37 -9
-103 -23 -145 -31 -43 -8 -89 -17 -103 -20 -14 -3 -50 -8 -80 -11 -30 -3 -57
-7 -60 -9 -3 -2 -37 -6 -75 -10 -39 -4 -78 -9 -88 -11 -141 -26 -704 -25 -937
2 -74 8 -195 24 -216 28 -10 2 -53 9 -94 16 -283 46 -744 183 -977 291 -24 10
-46 19 -49 19 -3 0 -88 41 -188 91 -99 51 -191 97 -203 103 -13 6 -23 14 -23
19 0 4 -7 7 -15 7 -16 0 2 38 110 230 24 41 51 91 62 110 161 290 236 420 242
421 3 0 15 2 26 4 11 2 47 7 80 11 33 3 68 8 78 10 10 2 45 6 78 9 33 4 68 8
78 10 10 2 42 6 72 10 71 8 128 15 159 20 14 2 52 7 85 10 33 3 71 7 85 10 14
2 43 7 65 9 22 3 76 10 120 15 44 6 103 13 130 16 28 4 60 8 71 10 12 2 48 6
80 10 33 4 70 9 84 11 14 2 48 6 75 9 47 5 181 22 235 30 14 2 48 6 75 9 28 4
61 8 75 11 14 2 50 7 80 10 82 8 204 23 320 40 25 4 125 16 170 20 23 3 64 8
150 20 19 3 55 7 80 10 25 2 61 7 80 9 57 9 261 35 315 41 28 3 68 8 90 11 90
12 198 26 230 29 29 3 125 16 144 20 9 1 43 6 76 9 33 4 110 13 170 21 61 8
133 17 160 20 28 3 59 7 70 9 11 2 49 7 85 11 36 4 72 8 80 10 8 1 42 6 75 9
33 4 71 9 85 11 14 2 48 6 75 10 47 5 172 21 243 31 64 8 98 13 153 19 38 5
64 14 80 30 13 12 345 345 738 739 393 394 716 715 718 712 2 -2 -12 -62 -32
-132z m-4006 -48 c3 -2 26 -7 51 -10 50 -7 82 -12 155 -26 28 -5 64 -11 80
-14 57 -8 401 -67 505 -86 58 -10 123 -22 145 -25 23 -3 50 -7 60 -9 11 -2
119 -20 240 -41 121 -20 226 -38 232 -40 9 -3 2 -28 -23 -82 -20 -43 -54 -120
-77 -172 l-40 -93 -46 6 c-25 3 -57 8 -71 11 -51 10 -215 41 -270 50 -78 14
-256 45 -275 49 -56 11 -195 36 -230 42 -128 19 -121 14 -385 294 -28 30 -75
79 -103 109 l-51 53 49 -6 c27 -4 51 -9 54 -10z"/>
</g>
</svg>
